REM Ripping Tool: trurip

FILE "Hu PGA Tour - Power Golf 2 - Golfer (1994)(Hudson)(JP).img" BINARY
  TRACK 01 AUDIO
    INDEX 01 00:00:00
  TRACK 02 MODE1/2352
    INDEX 00 00:44:65
    INDEX 01 00:47:71
  TRACK 03 AUDIO
    INDEX 00 07:10:40
    INDEX 01 07:12:40
  TRACK 04 AUDIO
    INDEX 01 07:51:43
  TRACK 05 AUDIO
    INDEX 01 10:07:27
  TRACK 06 AUDIO
    INDEX 01 12:45:68
  TRACK 07 AUDIO
    INDEX 01 15:09:01
  TRACK 08 AUDIO
    INDEX 01 17:32:48
  TRACK 09 AUDIO
    INDEX 01 20:00:14
  TRACK 10 MODE1/2352
    INDEX 00 22:20:43
    INDEX 01 22:23:43

REM DISC HASHES
REM CRC32 : 36b7b6fb
REM MD5   : b8b83dbb1f7c34840285b4aeb07b077c
REM SHA1  : a1569cf380b13eb6a16b7c14b78e9bdbb82a7607

REM Gap Append Method: Prev [crc32]
REM Trk 01: 899825d6
REM Trk 02: eef6fe09
REM Trk 03: 0e6c8fad
REM Trk 04: c7f14ef3
REM Trk 05: b4ae5746
REM Trk 06: 4cb043e5
REM Trk 07: 5ac0b81c
REM Trk 08: b4677a3c
REM Trk 09: b3cec59f
REM Trk 10: 036a7694

REM Gap Append Method: Prev [md5]
REM Trk 01: 3452e6470bc24a862c154369109ff122
REM Trk 02: 569574a538ed470d7af7f0d525c4c495
REM Trk 03: 828b8b8b81ffe458d6a6eca0b83f8933
REM Trk 04: 86f9372f6e7b0425bd10e94f2bad4e53
REM Trk 05: 7a7b5588f7d7655530af475cb8e51393
REM Trk 06: 27e53478a55a8083398a7bee80e111bc
REM Trk 07: c06d6b9a5d20e4289d67167992043211
REM Trk 08: bb65b3f8cdc2a259eb111443ed35e8e0
REM Trk 09: 7661f08ab423f28ca49871a5d9e5d1e0
REM Trk 10: 952a325ef3812b5cdf51245fadfe3683

REM Gap Append Method: Prev [sha1]
REM Trk 01: 0680af0cb0a1de3ea5559dc2133349a88ca7210e
REM Trk 02: 82e8361d952877ac4da5103a7592c5961dfe192e
REM Trk 03: 627ede840148a4a76b889db90e2e91a1abc7f399
REM Trk 04: 04a6afb1c77caf3cce06b99df2bc1e586089cad1
REM Trk 05: cb08e2caaab824c2152196667969bb3e2ae23040
REM Trk 06: a923af0cc28560f5c7b14be72bf70c2c69cd603f
REM Trk 07: 53d1dcfb316a6edaed9b8bf2c5d117e67c286c02
REM Trk 08: 8d5e5962c72bbec04e7bb3275fef01178c881a4f
REM Trk 09: acc3e0b18aad3bf32d8ed15cbe981f56232e0b2d
REM Trk 10: 60d07e4296e995edc8a0bad25500166285e1098d

REM Gap Append Method: None [crc32]
REM Trk 01: 6a8293a6
REM Trk 02: 583c0c2a
REM Trk 03: 0e6c8fad
REM Trk 04: c7f14ef3
REM Trk 05: b4ae5746
REM Trk 06: 4cb043e5
REM Trk 07: 5ac0b81c
REM Trk 08: b4677a3c
REM Trk 09: 507b7672
REM Trk 10: 036a7694
REM Gap 02: c22225bc
REM Gap 03: 7abe247f
REM Gap 10: 7b2a6017

REM Gap Append Method: None [md5]
REM Trk 01: 4544b187195fd91731663b04cfe3eb2e
REM Trk 02: 13c39aff3cda2f5de753d2d108bcd5b1
REM Trk 03: 828b8b8b81ffe458d6a6eca0b83f8933
REM Trk 04: 86f9372f6e7b0425bd10e94f2bad4e53
REM Trk 05: 7a7b5588f7d7655530af475cb8e51393
REM Trk 06: 27e53478a55a8083398a7bee80e111bc
REM Trk 07: c06d6b9a5d20e4289d67167992043211
REM Trk 08: bb65b3f8cdc2a259eb111443ed35e8e0
REM Trk 09: 89121f428c9d070a62005ea17b2fcd1f
REM Trk 10: 952a325ef3812b5cdf51245fadfe3683
REM Gap 02: 27376a44bf1ceb76fd67e8f92078a6ca
REM Gap 03: 9df204fbc98bb8965081cb30a89715fc
REM Gap 10: 8b0e84116c7aa623160c49c1fbbe91c2

REM Gap Append Method: None [sha1]
REM Trk 01: 43d2d367ff74ab41e76855bff95f70126e20faf1
REM Trk 02: faaa2939714c51a1c1be26b71f127f4aaaaeeed7
REM Trk 03: 627ede840148a4a76b889db90e2e91a1abc7f399
REM Trk 04: 04a6afb1c77caf3cce06b99df2bc1e586089cad1
REM Trk 05: cb08e2caaab824c2152196667969bb3e2ae23040
REM Trk 06: a923af0cc28560f5c7b14be72bf70c2c69cd603f
REM Trk 07: 53d1dcfb316a6edaed9b8bf2c5d117e67c286c02
REM Trk 08: 8d5e5962c72bbec04e7bb3275fef01178c881a4f
REM Trk 09: f8eb4c4e699fc8c31685b6867df8077aa8802b5e
REM Trk 10: 60d07e4296e995edc8a0bad25500166285e1098d
REM Gap 02: 4f913d20eba5a956535b36c9944fe484fbba427a
REM Gap 03: cbe29e0bd725ef1194f8c47619dd42078e841de2
REM Gap 10: 32bb6cf77d76a1960043b627b7cbc1e79d61ba93

REM Gap Append Method: Next [crc32]
REM Trk 01: 6a8293a6
REM Trk 02: 70d4e23a
REM Trk 03: 09e5f0ad
REM Trk 04: c7f14ef3
REM Trk 05: b4ae5746
REM Trk 06: 4cb043e5
REM Trk 07: 5ac0b81c
REM Trk 08: b4677a3c
REM Trk 09: 507b7672
REM Trk 10: 54641459

REM Gap Append Method: Next [md5]
REM Trk 01: 4544b187195fd91731663b04cfe3eb2e
REM Trk 02: dc19db8891676d8b8d7741413e766f00
REM Trk 03: a62ca14aa78e96843104916655b8d3f9
REM Trk 04: 86f9372f6e7b0425bd10e94f2bad4e53
REM Trk 05: 7a7b5588f7d7655530af475cb8e51393
REM Trk 06: 27e53478a55a8083398a7bee80e111bc
REM Trk 07: c06d6b9a5d20e4289d67167992043211
REM Trk 08: bb65b3f8cdc2a259eb111443ed35e8e0
REM Trk 09: 89121f428c9d070a62005ea17b2fcd1f
REM Trk 10: f9b41210c54058aeb3ea8cd5c125e1f3

REM Gap Append Method: Next [sha1]
REM Trk 01: 43d2d367ff74ab41e76855bff95f70126e20faf1
REM Trk 02: 4b1933d6ee67b68c148652788ed2d33f31866d72
REM Trk 03: 9aab5f5bc41d6a08b4484bd508c94553a147bb92
REM Trk 04: 04a6afb1c77caf3cce06b99df2bc1e586089cad1
REM Trk 05: cb08e2caaab824c2152196667969bb3e2ae23040
REM Trk 06: a923af0cc28560f5c7b14be72bf70c2c69cd603f
REM Trk 07: 53d1dcfb316a6edaed9b8bf2c5d117e67c286c02
REM Trk 08: 8d5e5962c72bbec04e7bb3275fef01178c881a4f
REM Trk 09: f8eb4c4e699fc8c31685b6867df8077aa8802b5e
REM Trk 10: b7bce29f8cba20ac75f434e3423298ee790162bd

